<svg xmlns="http://www.w3.org/2000/svg" viewBox="0 0 1600 960" role="img" aria-labelledby="title desc">
  <title id="title">Seaside trail</title>
  <desc id="desc">Coastal trail winding along ocean cliffs.</desc>
  <defs>
    <linearGradient id="sea-sky" x1="0%" y1="0%" x2="0%" y2="100%">
      <stop offset="0%" stop-color="#38bdf8" />
      <stop offset="60%" stop-color="#0ea5e9" />
      <stop offset="100%" stop-color="#0f172a" />
    </linearGradient>
    <linearGradient id="sea-cliffs" x1="0%" y1="0%" x2="100%" y2="0%">
      <stop offset="0%" stop-color="#f97316" />
      <stop offset="100%" stop-color="#ea580c" />
    </linearGradient>
  </defs>
  <rect width="1600" height="960" fill="url(#sea-sky)" />
  <path d="M0,520 C200,440 380,520 540,480 C720,440 820,360 1000,340 C1180,320 1400,360 1600,320 L1600,960 L0,960 Z" fill="#0f172a" opacity="0.5" />
  <path d="M0,580 C180,540 360,600 520,560 C700,520 840,420 1000,400 C1180,380 1360,440 1600,400 L1600,960 L0,960 Z" fill="url(#sea-cliffs)" />
  <path d="M0,640 C220,620 420,720 620,680 C780,640 900,580 1100,600 C1300,620 1500,700 1600,720 L1600,960 L0,960 Z" fill="#facc15" opacity="0.4" />
</svg>
