<svg xmlns="http://www.w3.org/2000/svg" viewBox="0 0 64 64" role="img" aria-labelledby="title desc">
  <title id="title">Aperture Studio mark</title>
  <desc id="desc">Rounded square with an aperture inspired glyph</desc>
  <defs>
    <linearGradient id="apertureGradient" x1="0%" y1="0%" x2="100%" y2="100%">
      <stop offset="0%" stop-color="#4f46e5" />
      <stop offset="100%" stop-color="#06b6d4" />
    </linearGradient>
  </defs>
  <rect width="56" height="56" x="4" y="4" rx="14" fill="url(#apertureGradient)" />
  <path
    d="M32 16a16 16 0 1 0 16 16A16 16 0 0 0 32 16Zm7.5 7.17-6.2 4.75 3.3 9.44a1 1 0 0 1-1.88.7l-3.18-9.12-8.05-.03a1 1 0 0 1-.57-1.83l6.34-4.86-3.2-9.2a1 1 0 0 1 1.88-.7l3.03 8.72 8.33.03a1 1 0 0 1 .6 1.9Z"
    fill="#f8fafc"
  />
</svg>
